<svg width="485" height="475" viewBox="0 0 485 475" fill="none" xmlns="http://www.w3.org/2000/svg">
<path fill-rule="evenodd" clip-rule="evenodd" d="M238.949 3.74629C234.789 7.95379 227.617 13.8825 221.163 18.4725C197.448 35.1113 169.191 45.63 136.439 49.9332C129.363 50.8416 126.112 50.985 111.337 51.0328C93.9337 51.0328 90.1087 50.7938 77.8687 48.7857C57.5962 45.5344 37.9931 38.7928 23.1234 29.9953C21.1153 28.8 19.2984 27.8438 19.1072 27.8438C18.9159 27.8438 14.565 40.5619 9.49686 56.1488C2.99436 75.8953 0.364671 84.5016 0.794984 84.645C2.61186 85.2188 7.44092 89.0438 10.6444 92.3907C23.8884 106.256 29.7694 127.437 28.0481 155.121C27.1397 169.608 27.2831 205.898 28.2872 218.377C32.1122 265.998 41.8659 303.483 59.174 336.952C83.2237 383.425 119.37 417.755 171.342 443.334C183.534 449.311 189.463 451.893 209.783 460.164C228.048 467.575 236.75 471.353 239.905 473.361L242.009 474.699L248.751 471.305C252.48 469.44 262.377 465.185 270.792 461.79C306.604 447.398 326.685 437.453 346.336 424.448C361.11 414.647 371.246 406.328 384.347 393.179C402.42 375.106 415.09 357.463 426.757 334.178C449.085 289.522 459.508 232.768 456.974 169.13C455.635 136.33 456.353 127.437 461.373 113.093C465.341 101.858 472.896 91.5778 481.263 86.1272C483.128 84.8841 484.227 83.88 484.084 83.4975C483.94 83.115 479.828 70.636 474.952 55.7185C470.075 40.7532 466.011 28.3219 465.867 27.9872C465.772 27.6525 464.242 28.3219 461.708 29.8519C445.403 39.7013 424.127 46.5385 399.408 49.8853C390.132 51.1285 368.043 51.6544 357.763 50.8416C332.04 48.7857 308.564 42.6178 287.048 32.1947C271.031 24.4491 259.222 16.4166 246.312 4.5591L242.009 0.638474L238.949 3.74629ZM250 218.179C267.702 214.488 281 198.797 281 180C281 158.461 263.539 141 242 141C220.461 141 203 158.461 203 180C203 199.15 216.801 215.075 235 218.374V271H250V218.179Z" fill="#000000"/>
</svg>
